<?xml version="1.0" ?><!DOCTYPE svg  PUBLIC '-//W3C//DTD SVG 1.1//EN'  'http://www.w3.org/Graphics/SVG/1.1/DTD/svg11.dtd'><svg height="2048px" style="shape-rendering:geometricPrecision; text-rendering:geometricPrecision; image-rendering:optimizeQuality; fill-rule:evenodd; clip-rule:evenodd" viewBox="0 0 2048 2048" width="2048px" xml:space="preserve" xmlns="http://www.w3.org/2000/svg" xmlns:xlink="http://www.w3.org/1999/xlink"><defs><style type="text/css">
   <![CDATA[
    .fil6 {fill:none}
    .fil2 {fill:#66727C}
    .fil4 {fill:#758089}
    .fil1 {fill:#B3938A}
    .fil5 {fill:#B5BDC4}
    .fil3 {fill:#EEEBE8}
    .fil0 {fill:#333333;fill-rule:nonzero}
   ]]>
  </style></defs><g id="Layer_x0020_1"><path class="fil0" d="M1431.62 1776l-778.098 0c-120.254,0 -215.32,-32.0351 -280.692,-92.0233 -65.7119,-60.3024 -100.831,-148.139 -100.831,-259.409l0 -764.754c0,-115.155 34.1859,-211.761 93.8292,-279.819 60.1524,-68.6386 145.759,-107.995 248.019,-107.995l845.906 0c81.3249,0 165.761,41.1662 226.903,115.09 53.5619,64.7552 89.3434,154.675 89.3434,263.912l0 769.23c0,99.528 -37.7599,188.382 -99.6367,252.404 -62.0304,64.1812 -148.169,103.364 -244.743,103.364zm-778.098 -32.0008l778.098 0c87.6036,0 165.639,-35.439 221.743,-93.4879 56.2878,-58.239 90.6367,-139.292 90.6367,-230.28l0 -769.23c0,-101.211 -32.8276,-184.129 -81.9662,-243.538 -54.965,-66.456 -130.22,-103.463 -202.279,-103.463l-845.906 0c-92.6871,0 -169.994,35.3481 -224.019,96.9946 -54.5575,62.2548 -85.8284,151.577 -85.8284,258.819l0 764.754c0,101.95 31.5047,181.813 90.4536,235.91 59.3327,54.4465 147.052,83.5217 259.068,83.5217z"/><path class="fil0" d="M1024 771.658c-60.554,0 -115.338,24.5091 -154.952,64.1493 -39.6402,39.665 -64.1587,94.4977 -64.1587,155.114 0,60.502 24.5268,115.283 64.1788,154.934 39.6496,39.6496 94.428,64.1776 154.932,64.1776 60.5008,0 115.28,-24.528 154.931,-64.18 39.652,-39.6508 64.18,-94.4304 64.18,-154.931 0,-60.6142 -24.5209,-115.447 -64.1599,-155.112 -39.6166,-39.6414 -94.4009,-64.1516 -154.951,-64.1516zm-177.578 41.6492c45.4819,-45.5115 108.273,-73.6501 177.578,-73.6501 69.3024,0 132.093,28.1398 177.577,73.6524 45.4311,45.4618 73.5355,108.25 73.5355,177.612 0,69.3331 -28.1103,132.113 -73.5556,177.556 -45.4429,45.4453 -108.223,73.5556 -177.556,73.5556 -69.3378,0 -132.115,-28.1103 -177.558,-73.5532 -45.4453,-45.4429 -73.5544,-108.223 -73.5544,-177.559 0,-69.3638 28.1008,-132.152 73.5343,-177.614z"/><path class="fil0" d="M1024 1379.92c-107.29,0 -204.582,-43.6465 -275.048,-114.11 -70.4658,-70.4646 -114.113,-167.754 -114.113,-275.041 0,-107.241 43.6618,-204.489 114.155,-274.953 70.4682,-70.4398 167.75,-114.058 275.007,-114.058 107.256,0 204.547,43.6205 275.027,114.065 70.4965,70.4611 114.168,167.707 114.168,274.945 0,107.283 -43.6559,204.571 -114.126,275.034 -70.4776,70.467 -167.78,114.117 -275.068,114.117zm-252.423 -136.735c64.6772,64.6749 153.966,104.734 252.423,104.734 98.4556,0 187.756,-40.0642 252.443,-104.741 64.6819,-64.6749 104.751,-153.96 104.751,-252.409 0,-98.4839 -40.0359,-187.722 -104.667,-252.32 -64.6867,-64.6548 -154.017,-104.689 -252.527,-104.689 -98.5111,0 -187.831,40.0323 -252.507,104.682 -64.6252,64.5981 -104.654,153.84 -104.654,252.327 0,98.4532 40.0618,187.741 104.738,252.416z"/><path class="fil0" d="M1571.6 598.711c0,23.0173 -9.35434,43.8851 -24.4677,59.0056 -15.1547,15.1606 -36.0378,24.5421 -59.0469,24.5421l-100.05 0c-23.0091,0 -43.8922,-9.3815 -59.0469,-24.5421 -15.1134,-15.1205 -24.4677,-35.9882 -24.4677,-59.0056l0 -100.169c0,-22.9606 9.38505,-43.8189 24.5445,-58.9524 15.1193,-15.0921 35.9764,-24.4429 58.9701,-24.4429l100.05 0c22.9937,0 43.8508,9.35079 58.9701,24.4429 15.1595,15.1335 24.5445,35.9918 24.5445,58.9524l0 100.169zm-47.0929 36.5055c9.32127,-9.32599 15.0921,-22.2343 15.0921,-36.5055l0 -100.169c0,-14.2028 -5.75197,-27.052 -15.0437,-36.3272 -9.32009,-9.30237 -22.2166,-15.0673 -36.4701,-15.0673l-100.05 0c-14.2536,0 -27.15,5.76497 -36.4701,15.0673 -9.29174,9.2752 -15.0437,22.1244 -15.0437,36.3272l0 100.169c0,14.2713 5.77087,27.1795 15.0921,36.5055 9.2882,9.29174 22.1658,15.0414 36.4217,15.0414l100.05 0c14.2559,0 27.1335,-5.74961 36.4217,-15.0414z"/><polygon class="fil0" points="288,783.271 702.237,783.271 702.237,815.272 288,815.272 "/><polygon class="fil0" points="1350.95,783.271 1765.18,783.271 1765.18,815.272 1350.95,815.272 "/><path class="fil0" d="M682.258 291.197c0,-8.83583 -7.16457,-16.0004 -16.0004,-16.0004 -8.83583,0 -16.0004,7.16457 -16.0004,16.0004l0 394.664c0,8.83583 7.16457,16.0004 16.0004,16.0004 8.83583,0 16.0004,-7.16457 16.0004,-16.0004l0 -394.664z"/><path class="fil0" d="M591.998 291.197c0,-8.83583 -7.16457,-16.0004 -16.0004,-16.0004 -8.83583,0 -16.0004,7.16457 -16.0004,16.0004l0 394.664c0,8.83583 7.16457,16.0004 16.0004,16.0004 8.83583,0 16.0004,-7.16457 16.0004,-16.0004l0 -394.664z"/><path class="fil0" d="M501.739 312.653c0,-8.83583 -7.16457,-16.0004 -16.0004,-16.0004 -8.83583,0 -16.0004,7.16457 -16.0004,16.0004l0 373.209c0,8.83583 7.16457,16.0004 16.0004,16.0004 8.83583,0 16.0004,-7.16457 16.0004,-16.0004l0 -373.209z"/><path class="fil1" d="M1304.52 498.541c0,-22.9606 9.38505,-43.8189 24.5445,-58.9524 15.1193,-15.0921 35.9764,-24.4429 58.9701,-24.4429l100.05 0c22.9937,0 43.8508,9.35079 58.9701,24.4429 15.1595,15.1335 24.5445,35.9918 24.5445,58.9524l0 100.169c0,23.0173 -9.35434,43.8851 -24.4677,59.0056 -15.1547,15.1606 -36.0378,24.5421 -59.0469,24.5421l-100.05 0c-23.0091,0 -43.8922,-9.3815 -59.0469,-24.5421 -15.1134,-15.1205 -24.4677,-35.9882 -24.4677,-59.0056l0 -100.169zm439.48 152.46c0,-101.211 -32.8276,-184.129 -81.9662,-243.538 -54.965,-66.456 -130.22,-103.463 -202.279,-103.463l-777.495 0 0 381.861c0,8.83583 -7.16457,16.0004 -16.0004,16.0004 -8.83583,0 -16.0004,-7.16457 -16.0004,-16.0004l0 -381.861 -36.4099 0c-7.3819,0 -14.6669,0.22441 -21.8492,0.668504l0 381.193c0,8.83583 -7.16457,16.0004 -16.0004,16.0004 -8.83583,0 -16.0004,-7.16457 -16.0004,-16.0004l0 -377.668c-20.4047,3.27047 -39.8599,8.42009 -58.2591,15.3284l0 362.34c0,8.83583 -7.16457,16.0004 -16.0004,16.0004 -8.83583,0 -16.0004,-7.16457 -16.0004,-16.0004l0 -348.007c-30.3603,15.9484 -57.1926,37.2201 -79.9087,63.1406 -54.5575,62.2548 -85.8284,151.577 -85.8284,258.819l0 123.457 390.969 0c15.4925,-24.4547 33.6355,-47.0741 54.0237,-67.454 70.4682,-70.4398 167.75,-114.058 275.007,-114.058 107.256,0 204.547,43.6205 275.027,114.065 20.3882,20.3776 38.5323,42.9957 54.0248,67.4469l390.948 0 0 -132.269z"/><path class="fil2" d="M1351.56 462.214c-9.29174,9.2752 -15.0437,22.1244 -15.0437,36.3272l0 100.169c0,14.2713 5.77087,27.1795 15.0921,36.5055 9.2882,9.29174 22.1658,15.0414 36.4217,15.0414l100.05 0c14.2559,0 27.1335,-5.74961 36.4217,-15.0414 9.32127,-9.32599 15.0921,-22.2343 15.0921,-36.5055l0 -100.169c0,-14.2028 -5.75197,-27.052 -15.0437,-36.3272 -9.32009,-9.30237 -22.2166,-15.0673 -36.4701,-15.0673l-100.05 0c-14.2536,0 -27.15,5.76497 -36.4701,15.0673z"/><path class="fil3" d="M1744 815.272l-372.731 0c26.8075,52.7599 41.9268,112.399 41.9268,175.498 0,107.283 -43.6559,204.571 -114.126,275.034 -70.4776,70.467 -167.78,114.117 -275.068,114.117 -107.29,0 -204.582,-43.6465 -275.048,-114.11 -70.4658,-70.4646 -114.113,-167.754 -114.113,-275.041 0,-63.0993 15.1158,-122.738 41.9185,-175.498l-372.756 0 0 609.296c0,101.95 31.5047,181.813 90.4536,235.91 59.3327,54.4465 147.052,83.5217 259.068,83.5217l778.098 0c87.6036,0 165.639,-35.439 221.743,-93.4879 56.2878,-58.239 90.6367,-139.292 90.6367,-230.28l0 -604.96z"/><path class="fil4" d="M1276.44 1243.18c64.6819,-64.6749 104.751,-153.96 104.751,-252.409 0,-98.4839 -40.0359,-187.722 -104.667,-252.32 -64.6867,-64.6548 -154.017,-104.689 -252.527,-104.689 -98.5111,0 -187.831,40.0323 -252.507,104.682 -64.6252,64.5981 -104.654,153.84 -104.654,252.327 0,98.4532 40.0618,187.741 104.738,252.416 64.6772,64.6749 153.966,104.734 252.423,104.734 98.4556,0 187.756,-40.0642 252.443,-104.741zm-1.3311 -252.256c0,69.3331 -28.1103,132.113 -73.5556,177.556 -45.4429,45.4453 -108.223,73.5556 -177.556,73.5556 -69.3378,0 -132.115,-28.1103 -177.558,-73.5532 -45.4453,-45.4429 -73.5544,-108.223 -73.5544,-177.559 0,-69.3638 28.1008,-132.152 73.5343,-177.614 45.4819,-45.5115 108.273,-73.6501 177.578,-73.6501 69.3024,0 132.093,28.1398 177.577,73.6524 45.4311,45.4618 73.5355,108.25 73.5355,177.612z"/><path class="fil5" d="M1178.93 1145.85c39.652,-39.6508 64.18,-94.4304 64.18,-154.931 0,-60.6142 -24.5209,-115.447 -64.1599,-155.112 -39.6166,-39.6414 -94.4009,-64.1516 -154.951,-64.1516 -60.554,0 -115.338,24.5091 -154.952,64.1493 -39.6402,39.665 -64.1587,94.4977 -64.1587,155.114 0,60.502 24.5268,115.283 64.1788,154.934 39.6496,39.6496 94.428,64.1776 154.932,64.1776 60.5008,0 115.28,-24.528 154.931,-64.18z"/></g><rect class="fil6" height="2048" width="2048"/></svg>